<?xml version="1.0" encoding="utf-8"?>
<!-- Generator: Adobe Illustrator 19.0.0, SVG Export Plug-In . SVG Version: 6.00 Build 0)  -->
<svg version="1.2" baseProfile="tiny" id="Warstwa_1"
	 xmlns="http://www.w3.org/2000/svg" xmlns:xlink="http://www.w3.org/1999/xlink" x="0px" y="0px" viewBox="0 0 232.3 46.3"
	 xml:space="preserve">
<g id="text">
	<g id="XMLID_30_">
		<rect id="XMLID_137_" x="1.1" y="6.3" fill="none" width="59" height="40"/>
		<path id="XMLID_128_" fill="#FFFFFF" d="M18.6,17.6c-0.3,0.3-0.5,0.4-0.8,0.5s-0.4,0-0.5,0c-0.1-0.1-0.2-0.2-0.2-0.4
			s0.1-0.5,0.3-0.7c0.2-0.3,0.6-0.8,1-1.5c0.4-0.7,0.9-1.5,1.4-2.4c0.5-0.9,0.9-1.8,1.3-2.7c0.4-0.9,0.6-1.8,0.7-2.6
			c0.1-0.8,0-1.4-0.3-2s-0.9-0.8-1.8-0.8C18.9,4.9,18,5.2,17,6c-1,0.7-2,1.7-2.9,2.9c-1,1.2-1.9,2.6-2.8,4.2
			c-0.9,1.6-1.7,3.2-2.4,4.9c-0.7,1.7-1.2,3.3-1.6,5c-0.4,1.7-0.6,3.2-0.6,4.5c0,1.4,0.3,2.5,0.8,3.4c0.5,0.9,1.3,1.5,2.4,1.8
			c0.8,0.2,1.7,0.1,2.6-0.2c0.9-0.3,1.8-0.8,2.7-1.5c0.9-0.6,1.7-1.4,2.6-2.3c0.8-0.9,1.6-1.8,2.4-2.7c0.7-0.9,1.4-1.8,1.9-2.7
			c0.6-0.9,1-1.6,1.3-2.2c0.2-0.3,0.4-0.5,0.6-0.6c0.2-0.1,0.4-0.1,0.6,0c0.2,0.1,0.3,0.2,0.3,0.5c0.1,0.2,0,0.5-0.2,0.9
			c-0.4,0.8-0.9,1.8-1.5,2.7c-0.6,1-1.3,2-2.1,2.9c-0.8,1-1.7,1.9-2.6,2.8c-0.9,0.9-1.9,1.7-3,2.4c-1,0.7-2.1,1.2-3.2,1.6
			C11.1,34.8,10,35,8.9,35c-1.9-0.1-3.4-0.6-4.4-1.6c-1-1-1.8-2.3-2.1-4s-0.4-3.5-0.2-5.5c0.3-2,0.7-4.1,1.5-6.2
			c0.7-2.1,1.7-4.1,2.8-6.1c1.1-2,2.4-3.7,3.8-5.3c1.4-1.5,2.9-2.7,4.4-3.6c1.6-0.9,3.1-1.2,4.7-1.1c1.5,0.1,2.6,0.5,3.4,1.2
			c0.8,0.6,1.3,1.4,1.6,2.4c0.2,1,0.2,2,0,3.1c-0.2,1.1-0.6,2.3-1.2,3.4c-0.5,1.1-1.2,2.2-2,3.2C20.4,16.1,19.5,16.9,18.6,17.6z"/>
		<path id="XMLID_130_" fill="#FFFFFF" d="M26.9,16.9c-0.1,0.4-0.2,0.9-0.3,1.4c-0.1,0.5-0.2,0.9-0.3,1.3l2.2,0.1h0
			c1.2,0.1,2.2,0.4,2.8,0.9c0.7,0.6,1,1.3,1,2.1c0,0.4-0.1,0.7-0.2,1.1c-0.1,0.4-0.3,0.7-0.5,1.1c-0.1,0.2-0.2,0.4-0.4,0.6
			c-0.1,0.2-0.3,0.4-0.5,0.7h0c0.2,0.1,0.3,0.3,0.4,0.5c0.8-0.9,1.6-1.8,2.3-2.8c0.7-1,1.4-2.1,2-3.5c0.1-0.2,0.2-0.2,0.4-0.2
			c0.2,0,0.4,0.1,0.6,0.2c0.2,0.1,0.4,0.2,0.5,0.4c0.1,0.2,0.2,0.3,0.1,0.5c-0.7,1.5-1.6,2.9-2.5,4.1c-0.9,1.2-1.9,2.3-3,3.4h0.1
			c0,0.1,0,0.3,0.1,0.4c0,0.1,0,0.3,0,0.5c0,1.1-0.2,2.3-0.6,3.6c-0.4,1.3-1,2.6-1.6,3.9c-0.6,1.2-1.3,2.4-2.1,3.4
			c-0.7,1-1.4,1.7-2.1,2.2c-1,0.6-1.8,1-2.5,1c-0.9,0-1.6-0.4-2.1-1.1s-0.8-1.7-0.8-2.8c0-0.9,0.2-1.9,0.7-3c0.4-1.1,1.1-2,2-2.9
			c0.4-0.4,0.8-0.8,1.3-1.1c0.4-0.4,0.8-0.7,1.2-1h0l0.8-0.7c0.4-0.3,0.7-0.6,1.1-0.8c0.4-0.3,0.7-0.6,1-0.9h-0.1c0-0.1,0-0.2,0-0.3
			s0-0.3,0-0.4c-0.5,0.4-1.1,0.8-1.8,1s-1.4,0.4-2,0.4c-0.6,0-1-0.1-1.4-0.3c-0.4-0.2-0.6-0.5-0.6-0.9c-0.1-0.4,0.1-0.8,0.4-1.1
			c0.3-0.3,0.7-0.6,1.2-0.8c0.5-0.2,1-0.4,1.5-0.5c0.5-0.1,1-0.2,1.4-0.3c0.2-0.3,0.4-0.7,0.7-1.3c0.3-0.6,0.4-1.2,0.4-1.7
			c0-0.3-0.1-0.6-0.2-0.8c-0.1-0.2-0.3-0.3-0.6-0.4c-0.6-0.1-1.2-0.1-1.8-0.3c-0.6-0.1-1.2-0.3-1.7-0.6c-0.5-0.3-1-0.6-1.3-1.1
			c-0.3-0.4-0.5-1-0.5-1.7c0-0.6,0.1-1.2,0.3-1.7c0.3-0.6,0.6-1.1,0.9-1.6c0.4-0.5,0.8-0.8,1.2-1.1c0.4-0.3,0.8-0.4,1.2-0.4
			c0.3,0,0.6,0.1,0.9,0.4c0.2,0.2,0.4,0.5,0.5,0.9c0.1,0.4,0.2,0.7,0.2,1.1C27,16.2,27,16.6,26.9,16.9z M24.5,37.6
			c0.1-0.2,0.3-0.5,0.5-0.9c0.2-0.4,0.4-0.8,0.7-1.2c0.3-0.4,0.5-0.9,0.8-1.4c0.3-0.5,0.5-1,0.7-1.5c-0.6,0.5-1.3,1-1.9,1.6
			c-0.6,0.5-1.1,1-1.6,1.5c-0.6,0.6-1,1.3-1.3,2.1c-0.3,0.8-0.4,1.4-0.4,1.9c0,0.3,0.1,0.5,0.2,0.5c0.2,0,0.5-0.2,0.8-0.5
			c0.3-0.4,0.8-1,1.4-1.8h0L24.5,37.6z"/>
		<path id="XMLID_133_" fill="#FFFFFF" d="M43,21.9c0-0.2,0.1-0.4,0.3-0.5c0.2-0.1,0.4-0.1,0.7-0.1c0.3,0,0.6,0,0.8,0.1
			c0.3,0,0.5,0.1,0.6,0.1c0.4,0.2,0.7,0.4,0.8,0.7c0.1,0.3,0.2,0.6,0.2,1.1c0,0.6,0,1.1-0.1,1.5c-0.1,0.4-0.2,0.9-0.4,1.4l-0.4,1.4
			c-0.1,0.6-0.2,1.1-0.2,1.3c0,0.2,0.1,0.3,0.2,0.2c0.2-0.1,0.3-0.3,0.6-0.6c0.2-0.3,0.5-0.7,0.8-1.1s0.6-0.9,0.9-1.3h0
			c0.6-1.1,1.2-2.2,1.6-3.2c0.5-1,0.8-1.8,1-2.3c0.2-0.2,0.3-0.3,0.5-0.4c0.2,0,0.4,0,0.5,0.1s0.3,0.2,0.4,0.4
			C52,20.8,52,21,52,21.3L51.7,22c-0.3,0.6-0.6,1.4-1,2.2c-0.4,0.9-0.8,1.8-1.3,2.7c-0.3,0.5-0.7,1.1-1,1.7
			c-0.4,0.6-0.8,1.2-1.2,1.7c-0.4,0.5-0.9,0.9-1.4,1.2c-0.5,0.3-1,0.3-1.6,0.1c-0.8-0.4-1.4-1-1.8-1.6s-0.6-1.4-0.7-2.1
			c-0.7,0.8-1.4,1.4-2.2,2.1c-0.8,0.6-1.6,1-2.5,1.3c-0.2,0.1-0.4,0.1-0.7,0.1c-0.2,0-0.4,0-0.6,0c-1.2,0-2.1-0.4-2.6-1.2
			c-0.6-0.8-0.9-1.9-0.9-3.1c0-0.6,0.1-1.1,0.2-1.7c0.1-0.6,0.3-1.1,0.5-1.7c0.3-0.6,0.7-1.4,1.2-2.2c0.5-0.8,1.2-1.6,2-2.4
			c0.8-0.8,1.7-1.4,2.7-1.9c1-0.5,2.2-0.7,3.4-0.7c0.5,0,1,0.2,1.4,0.5c0.4,0.3,0.8,0.7,1.1,1.1c0.3,0.4,0.5,0.9,0.7,1.3
			c0.1,0.5,0.2,0.9,0.2,1.2c0,0.1-0.1,0.3-0.3,0.3c-0.2,0.1-0.4,0.1-0.6,0.1c-0.3,0-0.5,0-0.8-0.1c-0.2-0.1-0.4-0.3-0.4-0.5
			c0-0.1,0-0.2-0.1-0.4c-0.1-0.2-0.1-0.4-0.2-0.5c-0.1-0.2-0.2-0.3-0.4-0.4c-0.2-0.1-0.3-0.2-0.5-0.1c-0.5,0-1,0.2-1.5,0.5
			c-0.5,0.3-1,0.7-1.5,1.3c-0.5,0.5-0.9,1.1-1.3,1.8c-0.4,0.7-0.7,1.3-1,2c-0.6,1.5-1,2.7-1,3.6c0,0.7,0.2,1.1,0.7,1.1
			c0.1,0,0.2,0,0.4-0.1c0.2-0.1,0.3-0.1,0.5-0.2h0c0.9-0.6,1.7-1.3,2.6-2.3c0.8-0.9,1.5-1.8,2.2-2.7c0.1-0.4,0.3-0.7,0.4-1
			C43,22.6,43.1,22.3,43,21.9z"/>
		<path id="XMLID_135_" fill="#FFFFFF" d="M56.2,28.6c-0.1,0.3-0.3,0.6-0.4,0.9c-0.1,0.2-0.3,0.5-0.5,0.8c-0.5,0.5-1.1,0.9-2,1.2
			c-0.9,0.3-1.7,0.4-2.5,0.4c-0.4,0-0.7,0-1-0.1s-0.5-0.1-0.7-0.3c-0.6-0.4-0.9-0.8-0.8-1.3c0.1-0.5,0.3-0.9,0.7-1.3
			c0.4-0.4,0.9-0.8,1.5-1.1c0.6-0.3,1.1-0.5,1.6-0.6c-0.2-0.4-0.4-0.9-0.6-1.3s-0.4-0.8-0.6-1.2c-0.3-0.6-0.6-1.1-0.8-1.7
			c-0.3-0.6-0.6-1.3-0.8-2c-0.1-0.3-0.2-0.6-0.3-0.9c-0.1-0.3-0.1-0.7-0.1-0.9c0-0.5,0.1-1,0.2-1.6c0.1-0.6,0.4-1.1,0.7-1.7
			c0.3-0.5,0.7-1,1.1-1.3c0.4-0.4,1-0.6,1.6-0.8c0.7-0.1,1.2,0,1.6,0.4c0.4,0.4,0.6,0.8,0.6,1.3c0,0.3,0,0.7-0.1,1.1
			c-0.1,0.4-0.2,0.8-0.4,1.2c-0.1,0.4-0.3,0.7-0.5,1.1c-0.2,0.3-0.4,0.6-0.5,0.8c0.7,1.2,1.3,2.3,1.9,3.5c0.6,1.2,1,2.2,1.2,3.1
			c1-0.6,1.9-1.3,2.7-2.3c0.8-1,1.4-2,1.9-3c0.1-0.2,0.3-0.4,0.5-0.4c0.2-0.1,0.4,0,0.7,0c0.2,0.1,0.4,0.2,0.5,0.4s0.1,0.4,0.1,0.6
			c-0.3,0.9-0.7,1.8-1.2,2.5c-0.5,0.7-1,1.4-1.6,1.9c-0.6,0.6-1.1,1.1-1.7,1.5C57.3,27.9,56.7,28.2,56.2,28.6z"/>
	</g>
	<g id="XMLID_29_">
		<rect id="XMLID_127_" x="51.2" y="7.8" fill="none" width="55" height="32"/>
		<path id="XMLID_123_" fill="#FFFFFF" d="M86.6,2.8c0.3,0.1,0.7,0.3,1.1,0.5c0.4,0.3,0.8,0.6,1.1,1c0.3,0.4,0.6,0.7,0.8,1.1
			c0.2,0.4,0.3,0.7,0.3,1c-1.3,2.6-2.4,5.1-3.4,7.6c-1,2.5-1.8,5-2.4,7.4s-1.1,5-1.4,7.5c-0.3,2.5-0.4,5.2-0.4,7.9
			c0,0.3,0,0.6,0,0.8c0,0.2,0,0.4,0,0.5c0,0.1-0.2,0.2-0.3,0.1c-0.2,0-0.5-0.1-0.8-0.3c-0.4-0.2-0.8-0.4-1.2-0.7
			c-0.4-0.3-0.7-0.6-1-0.9c-0.3-0.3-0.6-0.7-0.7-1c-0.2-0.3-0.3-0.6-0.3-0.9c0-2.3,0.1-4.4,0.3-6.5s0.6-4.1,1.1-6.1
			c0.5-2,1-3.9,1.7-5.8c0.7-1.9,1.4-3.8,2.2-5.8c-1.4,1.9-2.9,4-4.3,6.2c-1.5,2.2-2.8,4.4-4.2,6.6c-1.3,2.2-2.5,4.3-3.7,6.3
			c-1.1,2-2,3.7-2.7,5.1c0,0.4-0.1,0.6-0.3,0.6c-0.1,0-0.3,0-0.6-0.1c-0.2-0.1-0.5-0.1-0.8-0.2c-0.4-0.1-0.7-0.3-1.1-0.5
			s-0.7-0.5-1.1-0.9c-0.3-0.3-0.6-0.7-0.8-1.1c-0.2-0.4-0.3-0.8-0.3-1.2c0.6-2.7,1.3-5,1.8-7c0.6-2,1.1-3.7,1.6-5.2
			c0.5-1.5,1-2.8,1.4-3.8c0.4-1.1,0.9-2,1.3-2.9c0.4-0.8,0.8-1.6,1.1-2.3c0.4-0.7,0.7-1.4,1-2.2c0.4-1,0.7-1.7,0.9-2.2
			c0.2-0.5,0.3-0.8,0.3-0.9c0-0.1-0.2-0.1-0.5,0.1c-0.3,0.2-0.8,0.5-1.5,1c-1.1,0.7-2.1,1.5-3,2.3c-0.9,0.8-1.9,1.5-2.9,2.2
			c-1,0.7-2.1,1.3-3.2,1.7c-1.1,0.4-2.5,0.7-3.9,0.7c-0.7,0-1.4-0.1-2.1-0.3c-0.7-0.2-1.3-0.4-1.9-0.8c-0.6-0.4-1-0.9-1.4-1.5
			c-0.4-0.6-0.5-1.4-0.5-2.3c0-0.5,0-0.9,0.1-1.1C52,6.7,52,6.6,52.1,6.6s0.2,0.1,0.3,0.3c0.1,0.2,0.2,0.3,0.3,0.4
			c1.3,1.5,4.2,1.7,8.7,0.8c0.8-0.2,1.7-0.6,2.7-1.1s2-1.1,3-1.7c1-0.6,2.1-1.3,3.1-1.9c1.1-0.6,2.1-1.2,3.1-1.6
			c0.4-0.2,1-0.1,1.5,0.1c0.6,0.3,1.1,0.6,1.6,1c0.5,0.4,0.9,0.9,1.1,1.3c0.3,0.5,0.3,0.9,0.2,1.2c-0.3,0.5-0.6,1.2-1,2.1
			c-0.4,0.9-0.8,2-1.3,3.2c-0.5,1.2-1,2.5-1.5,3.9c-0.5,1.4-1.1,2.9-1.6,4.3c-0.5,1.5-1,2.9-1.5,4.4c-0.5,1.5-0.9,2.8-1.3,4.1
			c1-1.9,2.1-3.9,3.4-6.2c1.3-2.2,2.6-4.4,4.1-6.7c1.5-2.2,3-4.3,4.5-6.3c1.5-2,3.1-3.8,4.6-5.3l0.2-0.3c0.1,0,0.1,0,0.2,0H86.6
			L86.6,2.8z"/>
		<path id="XMLID_125_" fill="#FFFFFF" d="M96.6,23.4c0-0.2,0.1-0.4,0.3-0.5c0.2-0.1,0.4-0.1,0.7-0.1c0.3,0,0.6,0,0.8,0.1
			c0.3,0,0.5,0.1,0.6,0.1c0.4,0.2,0.7,0.4,0.8,0.7c0.1,0.3,0.2,0.6,0.2,1.1c0,0.6,0,1.1-0.1,1.5c-0.1,0.4-0.2,0.9-0.4,1.4L99,28.9
			c-0.1,0.6-0.2,1.1-0.2,1.3c0,0.2,0.1,0.3,0.2,0.2c0.2-0.1,0.3-0.3,0.6-0.6c0.2-0.3,0.5-0.7,0.8-1.1s0.6-0.9,0.9-1.3h0
			c0.6-1.1,1.2-2.2,1.6-3.2c0.5-1,0.8-1.8,1-2.3c0.2-0.2,0.3-0.3,0.5-0.4c0.2,0,0.4,0,0.5,0.1s0.3,0.2,0.4,0.4
			c0.1,0.2,0.1,0.4,0.1,0.7l-0.3,0.7c-0.3,0.6-0.6,1.4-1,2.2c-0.4,0.9-0.8,1.8-1.3,2.7c-0.3,0.5-0.7,1.1-1,1.7
			c-0.4,0.6-0.8,1.2-1.2,1.7c-0.4,0.5-0.9,0.9-1.4,1.2c-0.5,0.3-1,0.3-1.6,0.1c-0.8-0.4-1.4-1-1.8-1.6s-0.6-1.4-0.7-2.1
			c-0.7,0.8-1.4,1.4-2.2,2.1c-0.8,0.6-1.6,1-2.5,1.3c-0.2,0.1-0.4,0.1-0.7,0.1c-0.2,0-0.4,0-0.6,0c-1.2,0-2.1-0.4-2.6-1.2
			c-0.6-0.8-0.9-1.9-0.9-3.1c0-0.6,0.1-1.1,0.2-1.7c0.1-0.6,0.3-1.1,0.5-1.7c0.3-0.6,0.7-1.4,1.2-2.2c0.5-0.8,1.2-1.6,2-2.4
			c0.8-0.8,1.7-1.4,2.7-1.9c1-0.5,2.2-0.7,3.4-0.7c0.5,0,1,0.2,1.4,0.5c0.4,0.3,0.8,0.7,1.1,1.1c0.3,0.4,0.5,0.9,0.7,1.3
			c0.1,0.5,0.2,0.9,0.2,1.2c0,0.1-0.1,0.3-0.3,0.3c-0.2,0.1-0.4,0.1-0.6,0.1c-0.3,0-0.5,0-0.8-0.1c-0.2-0.1-0.4-0.3-0.4-0.5
			c0-0.1,0-0.2-0.1-0.4c-0.1-0.2-0.1-0.4-0.2-0.5c-0.1-0.2-0.2-0.3-0.4-0.4c-0.2-0.1-0.3-0.2-0.5-0.1c-0.5,0-1,0.2-1.5,0.5
			c-0.5,0.3-1,0.7-1.5,1.3c-0.5,0.5-0.9,1.1-1.3,1.8c-0.4,0.7-0.7,1.3-1,2c-0.6,1.5-1,2.7-1,3.6c0,0.7,0.2,1.1,0.7,1.1
			c0.1,0,0.2,0,0.4-0.1c0.2-0.1,0.3-0.1,0.5-0.2h0c0.9-0.6,1.7-1.3,2.6-2.3c0.8-0.9,1.5-1.8,2.2-2.7c0.1-0.4,0.3-0.7,0.4-1
			C96.6,24.1,96.7,23.8,96.6,23.4z"/>
	</g>
	<g id="XMLID_28_">
		<rect id="XMLID_122_" x="101.9" y="8" fill="none" width="95.5" height="41"/>
		<path id="XMLID_106_" fill="#FFFFFF" d="M119,17.6c-0.3,0.2-0.6,0.3-0.9,0.5s-0.5,0.2-0.6,0.2c-0.2,0-0.2-0.2-0.2-0.4
			s0.1-0.7,0.3-1.4c0.2-0.9,0.6-1.6,1-2c0.4-0.4,0.9-0.8,1.5-1.1c1.3-0.8,2.2-1.5,2.9-2.2c0.7-0.7,1-1.4,1.1-2
			c0.1-0.6-0.1-1.1-0.5-1.5s-1.2-0.6-2.2-0.5c-0.9,0-1.7,0.1-2.5,0.3c-0.8,0.2-1.6,0.4-2.3,0.7c-0.7,0.3-1.4,0.6-2,1
			c-0.6,0.4-1.1,0.8-1.4,1.2c-1,1.1-1.7,2.1-2,2.9c-0.3,0.9-0.3,1.6,0,2.3c0.2,0.7,0.7,1.3,1.3,1.9c0.6,0.6,1.4,1.2,2.2,1.7
			c1.1,0.8,2.2,1.5,3.4,2.3c1.2,0.8,2.2,1.6,3,2.5c0.8,0.9,1.4,1.8,1.6,2.8c0.2,1-0.1,2.2-0.9,3.4c-0.3,0.5-0.6,0.9-0.9,1.3
			s-0.6,0.7-0.9,1c-0.3,0.3-0.6,0.5-1,0.8c-0.4,0.3-0.7,0.5-1.2,0.8c-1.3,0.8-2.7,1.3-4.2,1.4c-1.5,0.1-2.8-0.1-4-0.6
			c-1.2-0.5-2.3-1.2-3.1-2.1s-1.3-2-1.4-3.2c-0.1-0.6-0.1-1.2-0.1-1.6c0-0.4,0-0.8,0.2-1.2c0.1-0.4,0.4-0.8,0.8-1.2
			c0.4-0.4,1-0.9,1.8-1.4c0.5-0.4,0.9-0.5,1.1-0.5c0.2,0,0.3,0.1,0.3,0.3c0,0.2-0.1,0.4-0.2,0.8c-0.1,0.3-0.2,0.6-0.2,0.8
			c-0.3,1.2-0.2,2.4,0.1,3.4c0.3,1.1,0.9,1.9,1.6,2.6c0.7,0.6,1.6,1,2.6,1.2c1,0.1,2-0.1,3-0.7c0.8-0.4,1.3-1,1.5-1.5
			c0.3-0.6,0.4-1.2,0.3-1.8c-0.1-0.6-0.4-1.2-0.8-1.8c-0.4-0.6-1-1.1-1.7-1.6c-0.7-0.5-1.5-1-2.4-1.5c-0.9-0.5-1.7-1.1-2.6-1.8
			c-0.8-0.6-1.6-1.3-2.3-2.1c-0.7-0.8-1.2-1.6-1.6-2.5c-0.4-0.9-0.5-1.9-0.4-3c0.1-1.1,0.5-2.3,1.2-3.7c0.7-1.3,1.6-2.5,2.7-3.5
			c1.1-1,2.3-1.8,3.5-2.5c1.3-0.7,2.6-1.1,3.9-1.4c1.4-0.3,2.7-0.4,4-0.3c0.8,0.1,1.5,0.3,2.3,0.7c0.7,0.4,1.4,0.9,2,1.5
			c0.6,0.6,1.1,1.3,1.4,2.1c0.4,0.8,0.6,1.6,0.7,2.4c0.1,0.8,0,1.7-0.3,2.5c-0.3,0.8-0.8,1.6-1.5,2.3c-0.4,0.4-0.9,0.7-1.4,1
			c-0.5,0.3-1.1,0.5-1.7,0.8c-0.6,0.3-1.2,0.5-1.8,0.8S119.6,17.2,119,17.6z"/>
		<path id="XMLID_108_" fill="#FFFFFF" d="M135.3,22.6c0.2-0.6,0.5-0.9,0.9-0.9c0.3,0,0.5,0.1,0.7,0.4c0.2,0.3,0.2,0.6,0.1,1
			c-0.4,1.6-0.9,3.1-1.6,4.4c-0.7,1.4-1.4,2.5-2,3.5c-0.5,0.8-1.1,1.4-1.8,1.8c-0.7,0.4-1.3,0.6-2,0.6c-1.1,0-2-0.5-2.9-1.4
			c-0.8-1-1.3-2.4-1.5-4.3c-0.1-1.6-0.1-3.3,0.1-5.2c0.2-1.9,0.6-3.7,1.2-5.6c0.6-1.9,1.3-3.6,2.2-5.4c0.9-1.7,2-3.2,3.2-4.5
			c0.4-0.4,0.7-0.6,1.1-0.8c0.4-0.2,0.8-0.3,1.1-0.3c0.6,0,1.2,0.2,1.6,0.6c0.4,0.4,0.6,1.1,0.6,1.9c0,1.2-0.2,2.4-0.5,3.7
			c-0.3,1.2-0.8,2.4-1.4,3.6s-1.3,2.2-2.1,3.1c-0.8,0.9-1.7,1.6-2.7,2.1c-0.3,1.3-0.5,2.6-0.7,3.9c-0.1,1.3-0.2,2.7-0.1,4.1
			c0,0.6,0.1,1,0.3,1.2c0.2,0.3,0.4,0.4,0.7,0.4c0.7,0,1.4-0.4,2.1-1.3c0.1-0.1,0.3-0.3,0.5-0.6s0.4-0.6,0.7-1.1
			c0.3-0.5,0.6-1.1,0.9-1.9C134.5,24.9,134.9,23.9,135.3,22.6z M134.3,9.9c-0.8,1.3-1.5,2.6-2.2,4c-0.7,1.4-1.3,2.8-1.8,4.4
			c0.5-0.4,1-1,1.4-1.6c0.4-0.6,0.8-1.3,1.2-2s0.7-1.5,0.9-2.2c0.3-0.8,0.5-1.5,0.7-2.2c0-0.1,0-0.3,0-0.3
			C134.5,9.6,134.4,9.7,134.3,9.9L134.3,9.9z"/>
		<path id="XMLID_111_" fill="#FFFFFF" d="M138,18.9c0.2-0.1,0.5-0.1,0.8,0c0.4,0.2,0.7,0.4,1,0.7c0.5-0.4,1-0.8,1.6-1.1
			c0.6-0.3,1.2-0.4,1.8-0.5c1.1,0,1.9,0.3,2.3,1c0.4,0.7,0.7,1.5,0.7,2.5c0,0.7-0.1,1.3-0.2,2c-0.2,0.6-0.3,1.2-0.5,1.7
			c-0.3,0.9-0.6,1.8-1.1,2.7c0.5-0.2,0.9-0.5,1.4-0.9c0.4-0.4,0.9-0.9,1.3-1.4c0.4-0.5,0.8-1.1,1.1-1.8c0.4-0.6,0.7-1.3,1-1.9
			c0.1-0.2,0.3-0.4,0.5-0.4c0.2-0.1,0.4,0,0.6,0.1c0.2,0.1,0.3,0.2,0.4,0.4c0.1,0.2,0.1,0.4,0.1,0.7c-0.4,0.8-0.8,1.7-1.3,2.6
			c-0.5,0.9-1,1.7-1.6,2.4c-0.6,0.7-1.3,1.3-2.1,1.8s-1.7,0.7-2.7,0.7c-0.6,0.8-1.4,1.5-2.3,2.1s-1.9,0.9-3,1
			c-0.9,0-1.7-0.1-2.3-0.3c-0.7-0.3-1.2-0.6-1.6-1.1s-0.7-1-0.9-1.7s-0.3-1.3-0.3-2.1c0-0.9,0.1-1.7,0.4-2.6
			c0.3-0.9,0.6-1.7,1.1-2.5c0.5-0.8,1-1.6,1.7-2.2C136.4,20,137.2,19.4,138,18.9z M140.7,30.2c-1.1-0.3-2-0.8-2.6-1.5
			c-0.7-0.7-1.1-1.6-1.2-2.5c-0.2,0.4-0.4,0.9-0.5,1.3c-0.1,0.5-0.2,1-0.2,1.6c0,0.8,0.2,1.4,0.5,1.7c0.3,0.3,0.7,0.5,1.2,0.5
			c0.4,0,0.8-0.1,1.3-0.3c0.5-0.2,0.9-0.4,1.3-0.8H140.7z M140.2,24.7c0.1,1,0.2,1.7,0.5,2.2s0.8,0.8,1.6,1c0.3-0.4,0.6-1,0.8-1.5
			c0.2-0.6,0.5-1.1,0.7-1.7c0.1-0.3,0.2-0.7,0.4-1.2c0.1-0.5,0.2-1.1,0.2-1.7c0-0.5-0.1-0.9-0.3-1.3c-0.2-0.4-0.5-0.5-1-0.5
			c-0.4,0-0.8,0.2-1.2,0.5c-0.4,0.4-0.7,0.8-1,1.3c-0.3,0.5-0.5,1-0.7,1.5C140.3,24,140.2,24.4,140.2,24.7z"/>
		<path id="XMLID_115_" fill="#FFFFFF" d="M159.4,22.2c-0.4,1.3-0.7,2.5-0.9,3.6c-0.2,1-0.3,2.1-0.3,3.1c0,1,0.3,1.6,0.8,1.6
			c0.2,0,0.4-0.1,0.6-0.4c0.3-0.2,0.5-0.5,0.8-0.9c0.3-0.4,0.6-0.8,0.9-1.2s0.6-0.9,0.8-1.3c-0.5-0.1-0.9-0.5-1.2-1
			c-0.3-0.5-0.4-1.1-0.4-1.7c0-0.8,0.2-1.5,0.7-2.2c0.4-0.7,1.1-1.1,1.9-1.3c0.6-0.1,1.1,0.2,1.4,0.7c0.3,0.5,0.5,1.2,0.5,1.9
			c0,0.3,0,0.6,0,0.9c0,0.3-0.1,0.5-0.1,0.7c0.4-0.2,0.7-0.3,1-0.5c0.3-0.2,0.5-0.3,0.7-0.5c0.2-0.2,0.4-0.4,0.6-0.7
			s0.3-0.6,0.5-0.9c0.2-0.2,0.3-0.3,0.5-0.4c0.2-0.1,0.4,0,0.5,0s0.3,0.2,0.4,0.4c0.1,0.2,0.1,0.4,0.1,0.7c-0.4,1.2-0.9,2.1-1.6,2.6
			c-0.7,0.6-1.6,1-2.6,1.4h0c-0.4,0.1-0.8,0.2-1.1,0.3c-0.3,0.5-0.5,1-0.9,1.6c-0.3,0.6-0.7,1.1-1,1.6s-0.7,1-1,1.4
			s-0.6,0.7-0.9,0.9c-0.4,0.3-0.7,0.5-1,0.6c-0.3,0.1-0.6,0.2-0.9,0.2c-0.5,0-1-0.1-1.4-0.4s-0.8-0.7-1.1-1.2
			c-0.3-0.5-0.6-1-0.7-1.6c-0.2-0.6-0.3-1.2-0.3-1.8c0-0.1,0-0.1,0,0c0,0.1,0,0.1,0,0.2c0,0.1,0,0.1,0,0s0-0.2,0-0.5
			c-0.3,0.6-0.6,1.3-1,2s-0.8,1.3-1.2,1.8c-0.4,0.5-0.9,0.9-1.4,1.2c-0.5,0.3-1,0.3-1.6,0.1c-0.9-0.4-1.5-1-2-1.8s-0.7-1.6-0.7-2.4
			c0-0.2,0-0.4,0-0.7c0-0.2,0.1-0.4,0.1-0.7c0.1-0.4,0.2-0.9,0.4-1.7c0.2-0.7,0.4-1.5,0.7-2.3c0.2-0.6,0.3-1.1,0.5-1.7
			c0.1-0.5,0.3-1,0.4-1.5s0.2-0.9,0.3-1.2c0.1-0.3,0.1-0.5,0.1-0.6c0-0.2,0.1-0.4,0.4-0.5c0.3-0.1,0.6-0.1,1-0.1c0.2,0,0.3,0,0.5,0
			c0.2,0,0.4,0.1,0.5,0.1c0.5,0.2,0.8,0.5,1,0.8c0.2,0.4,0.3,0.8,0.3,1.2c0,0.2,0,0.5-0.1,0.8c-0.1,0.3-0.2,0.8-0.3,1.4
			c-0.2,0.6-0.4,1.4-0.7,2.5c-0.3,1-0.7,2.4-1.2,4c-0.2,0.6-0.3,1.1-0.3,1.4c0,0.2,0.1,0.3,0.3,0.2c0.2-0.1,0.4-0.3,0.7-0.6
			c0.3-0.3,0.5-0.7,0.8-1.1c0.3-0.4,0.6-0.9,0.8-1.3c0.4-0.7,0.8-1.5,1.1-2.2c0.4-0.7,0.7-1.4,0.9-1.9l0.5-1.8
			c0.1-0.5,0.3-1.1,0.4-1.6c0.1-0.5,0.2-1,0.2-1.3c-0.1-0.2,0.1-0.4,0.3-0.5c0.3-0.1,0.6-0.1,1-0.1c0.4,0,0.7,0.1,1,0.2
			c0.5,0.2,0.8,0.5,1,0.9c0.2,0.4,0.3,0.8,0.3,1.3c0,0.3,0,0.6-0.1,0.9S159.4,22,159.4,22.2z"/>
		<path id="XMLID_117_" fill="#FFFFFF" d="M172.4,22.5c-0.5,0.4-1,0.9-1.3,1.3c-0.3,0.4-0.6,0.9-0.8,1.2c-0.2,0.4-0.3,0.7-0.4,1
			c-0.1,0.3-0.1,0.5-0.1,0.5l-0.3,1.1c-0.2,0.6-0.4,1.3-0.6,2.1c-0.2,0.8-0.3,1.5-0.3,2.2c0,0.3,0,0.6,0,0.8c0,0.2,0.1,0.4,0.2,0.6
			c-0.5,0.1-1,0.1-1.5,0c-0.5-0.1-1-0.3-1.4-0.5c-0.4-0.3-0.7-0.6-1-1s-0.3-0.9-0.2-1.6c0.1-0.4,0.3-1,0.4-1.8
			c0.2-0.7,0.4-1.5,0.6-2.3c0.2-0.8,0.4-1.6,0.7-2.4c0.2-0.8,0.4-1.5,0.6-2.2c0.3-1.3,0.7-2.6,1.2-3.9c0.5-1.3,1-2.6,1.6-3.9
			c0.6-1.3,1.3-2.5,2.1-3.6c0.8-1.1,1.6-2.2,2.6-3.1c0.8-0.7,1.6-1.1,2.3-1.1c0.6,0,1.1,0.2,1.4,0.7c0.4,0.5,0.6,1.1,0.6,1.8
			c-0.1,1.2-0.3,2.4-0.7,3.5c-0.4,1.1-0.9,2.1-1.5,3.1c-0.6,0.9-1.3,1.8-2.1,2.5c-0.8,0.7-1.7,1.2-2.7,1.6c-0.1,0.1-0.1,0.2-0.2,0.4
			c-0.1,0.2-0.1,0.4-0.2,0.5c-0.1,0.2-0.1,0.4-0.2,0.5c-0.1,0.2-0.1,0.2-0.1,0.3c0.5-0.4,1-0.8,1.7-1.1c0.6-0.4,1.3-0.5,1.9-0.5
			c0.8,0,1.3,0.2,1.7,0.7c0.4,0.5,0.5,1.1,0.5,1.9c0,0.6-0.1,1.1-0.3,1.7c-0.2,0.6-0.4,1.2-0.8,1.8c-0.4,0.6-0.8,1.1-1.3,1.6
			c-0.5,0.5-1.1,0.9-1.8,1.1h0.1c0.1,0.1,0.2,0.2,0.4,0.3c0.2,0.2,0.4,0.3,0.7,0.5c0.3,0.2,0.5,0.3,0.8,0.4c0.3,0.1,0.6,0.2,0.9,0.2
			c0.4,0,0.7-0.1,1.1-0.4c0.4-0.3,0.7-0.8,1.1-1.5c0.5-0.9,1-1.9,1.5-2.9c0.5-1,0.9-1.8,1.2-2.5c0.1-0.2,0.3-0.3,0.5-0.4
			s0.4,0,0.6,0.1c0.2,0.1,0.3,0.2,0.5,0.4s0.1,0.4,0.1,0.7c-0.2,0.6-0.5,1.4-1,2.4c-0.5,1-1,2.1-1.5,3.1l-0.3,0.5h0
			c-0.3,0.4-0.5,0.9-0.9,1.5s-0.7,1.1-1.1,1.6c-0.4,0.5-0.9,0.9-1.4,1.1c-0.5,0.3-1,0.3-1.5,0.1c-0.6-0.3-1.3-0.7-1.8-1.1
			c-0.6-0.5-1.1-1-1.6-1.5c-0.4-0.5-0.8-1.1-1-1.7c-0.3-0.6-0.4-1.1-0.3-1.6c0.1-0.3,0.3-0.6,0.5-0.9c0.3-0.4,0.6-0.7,0.9-1
			s0.6-0.6,0.8-0.8c0.4-0.3,0.7-0.6,1-0.9c0.3-0.3,0.4-0.5,0.5-0.8c0.2-0.6,0.2-1-0.1-1.1S172.8,22.2,172.4,22.5L172.4,22.5z
			 M176.7,9.9c-0.8,1.1-1.5,2.3-2.2,3.5c-0.7,1.2-1.3,2.4-1.9,3.7c1-0.8,1.8-1.8,2.6-3c0.8-1.3,1.3-2.6,1.7-4
			C177,10,177,9.8,177,9.7c0-0.1,0-0.2,0-0.3C177,9.4,176.9,9.5,176.7,9.9L176.7,9.9z"/>
		<path id="XMLID_120_" fill="#FFFFFF" d="M188.3,23.6c0-0.2,0.1-0.4,0.3-0.5c0.2-0.1,0.4-0.1,0.7-0.1c0.3,0,0.6,0,0.8,0.1
			c0.3,0,0.5,0.1,0.6,0.1c0.4,0.2,0.7,0.4,0.8,0.7c0.1,0.3,0.2,0.6,0.2,1.1c0,0.6,0,1.1-0.1,1.5c-0.1,0.4-0.2,0.9-0.4,1.4l-0.4,1.4
			c-0.1,0.6-0.2,1.1-0.2,1.3c0,0.2,0.1,0.3,0.2,0.2c0.2-0.1,0.3-0.3,0.6-0.6c0.2-0.3,0.5-0.7,0.8-1.1c0.3-0.4,0.6-0.9,0.9-1.3h0
			c0.6-1.1,1.2-2.2,1.6-3.2c0.5-1,0.8-1.8,1-2.3c0.2-0.2,0.4-0.3,0.5-0.4c0.2,0,0.4,0,0.5,0.1s0.3,0.2,0.4,0.4
			c0.1,0.2,0.1,0.4,0.1,0.7l-0.3,0.7c-0.3,0.6-0.6,1.4-1,2.2c-0.4,0.9-0.8,1.8-1.3,2.7c-0.3,0.5-0.7,1.1-1,1.7
			c-0.4,0.6-0.8,1.2-1.2,1.7c-0.4,0.5-0.9,0.9-1.4,1.2c-0.5,0.3-1,0.3-1.6,0.1c-0.8-0.4-1.4-1-1.8-1.6s-0.6-1.4-0.7-2.1
			c-0.7,0.8-1.4,1.4-2.2,2.1c-0.8,0.6-1.6,1-2.5,1.3c-0.2,0.1-0.4,0.1-0.7,0.1c-0.2,0-0.4,0-0.6,0c-1.2,0-2.1-0.4-2.6-1.2
			c-0.6-0.8-0.9-1.9-0.9-3.1c0-0.6,0.1-1.1,0.2-1.7c0.1-0.6,0.3-1.1,0.5-1.7c0.3-0.6,0.7-1.4,1.2-2.2c0.5-0.8,1.2-1.6,2-2.4
			c0.8-0.8,1.7-1.4,2.7-1.9s2.2-0.7,3.4-0.7c0.5,0,1,0.2,1.4,0.5c0.4,0.3,0.8,0.7,1.1,1.1c0.3,0.4,0.5,0.9,0.7,1.3
			c0.1,0.5,0.2,0.9,0.2,1.2c0,0.1-0.1,0.3-0.3,0.3c-0.2,0.1-0.4,0.1-0.6,0.1c-0.3,0-0.5,0-0.8-0.1c-0.2-0.1-0.4-0.3-0.4-0.5
			c0-0.1,0-0.2-0.1-0.4c-0.1-0.2-0.1-0.4-0.2-0.5c-0.1-0.2-0.2-0.3-0.4-0.4c-0.2-0.1-0.3-0.2-0.5-0.1c-0.5,0-1,0.2-1.5,0.5
			c-0.5,0.3-1,0.7-1.5,1.3s-0.9,1.1-1.3,1.8c-0.4,0.7-0.8,1.3-1,2c-0.6,1.5-1,2.7-1,3.6c0,0.7,0.2,1.1,0.7,1.1c0.1,0,0.2,0,0.4-0.1
			c0.2-0.1,0.3-0.1,0.5-0.2h0c0.9-0.6,1.8-1.3,2.6-2.3c0.8-0.9,1.5-1.8,2.2-2.7c0.1-0.4,0.3-0.7,0.4-1
			C188.3,24.3,188.3,24,188.3,23.6z"/>
	</g>
	<g id="XMLID_27_">
		<rect id="XMLID_105_" x="193.2" y="3.7" fill="none" width="46.4" height="31.4"/>
		<path id="XMLID_97_" fill="#FFFFFF" d="M195.3,31.3c0-1.6,1-2.6,2.5-2.6c1.5,0,2.5,1.1,2.5,2.6c0,1.5-1,2.6-2.5,2.6
			C196.3,33.9,195.3,32.8,195.3,31.3z"/>
		<path id="XMLID_99_" fill="#FFFFFF" d="M207.6,20.2c0.4,0.2,0.7,0.4,0.9,0.8c0.1,0.4,0.2,0.7,0.2,1.1v0.3c0.6-0.6,1.1-1,1.8-1.4
			c0.6-0.4,1.3-0.6,2-0.6c1.4,0,2.4,0.5,3.1,1.5c0.7,1,1,2.1,1,3.5c0,0.6,0,1.1-0.1,1.7c-0.1,0.6-0.3,1.2-0.5,1.7l-1.1,2.1
			c0.8-0.7,1.5-1.6,2.1-2.8s1.4-2.4,2.2-3.9c0.2-0.3,0.4-0.4,0.7-0.4c0.2,0,0.4,0,0.6,0.1c0.2,0.1,0.3,0.3,0.4,0.5
			c0.1,0.2,0,0.5-0.1,0.8c-0.7,1.2-1.3,2.4-1.9,3.4c-0.6,1-1.2,2-1.9,2.8c-0.6,0.8-1.3,1.5-2.1,2.1c-0.7,0.6-1.6,1-2.5,1.3
			c-0.3,0.1-0.7,0.2-1.1,0.2c-0.4,0.1-0.9,0.1-1.3,0.1c-0.7,0-1.3-0.1-1.8-0.3c-0.8-0.3-1.5-0.8-1.9-1.5c-0.2,1-0.5,2-0.7,3
			c-0.2,1-0.5,2.1-0.7,3.1c-0.2,1-0.4,1.9-0.5,2.8s-0.2,1.5-0.2,2.1c0,0.1,0,0.2,0,0.2c0,0.1,0,0.1,0,0.2c0,0.4,0,0.7-0.1,0.9
			c-0.1,0.2-0.5,0.4-1.2,0.4c-0.9,0-1.5-0.2-1.9-0.6c-0.4-0.4-0.6-1-0.6-1.8c0-0.8,0-1.8,0.2-2.9c0.2-1.1,0.4-2.2,0.6-3.4
			c0.2-1.2,0.5-2.4,0.8-3.7c0.3-1.2,0.6-2.5,0.9-3.7c0.3-1,0.5-1.9,0.7-2.8c0.2-0.9,0.4-1.8,0.6-2.6c0.2-0.8,0.4-1.6,0.5-2.2
			c0.1-0.7,0.2-1.2,0.2-1.7c0-0.2,0.2-0.4,0.5-0.5c0.3-0.1,0.7-0.1,1.1-0.1C206.8,20,207.2,20,207.6,20.2L207.6,20.2z M206.9,30.5
			c0.1,0.4,0.2,0.8,0.3,1.2s0.5,0.6,1,0.6c0.5,0.1,1.1-0.2,1.6-0.8c0.5-0.6,1-1.2,1.5-2s0.9-1.5,1.2-2.3c0.3-0.8,0.6-1.3,0.7-1.7
			c0.2-0.7,0.3-1.3,0.3-1.8c0-0.9-0.4-1.3-1.3-1.3c-0.7,0.1-1.4,0.4-2,0.9c-0.6,0.6-1.2,1.2-1.7,1.9l-0.5,0.5h0L206.9,30.5z"/>
		<path id="XMLID_102_" fill="#FFFFFF" d="M228.5,24.6c0.2-0.6,0.5-0.9,0.9-0.9c0.3,0,0.5,0.1,0.7,0.4c0.2,0.3,0.2,0.6,0.1,1
			c-0.4,1.6-0.9,3.1-1.6,4.4s-1.4,2.5-2,3.5c-0.5,0.8-1.1,1.4-1.8,1.8c-0.7,0.4-1.3,0.6-2,0.6c-1.1,0-2-0.5-2.9-1.4
			c-0.8-1-1.3-2.4-1.5-4.3c-0.1-1.6-0.1-3.3,0.1-5.2c0.2-1.9,0.6-3.7,1.2-5.6c0.6-1.9,1.3-3.6,2.2-5.4c0.9-1.7,2-3.2,3.2-4.5
			c0.4-0.4,0.7-0.6,1.1-0.8c0.4-0.2,0.8-0.3,1.1-0.3c0.6,0,1.2,0.2,1.6,0.6c0.4,0.4,0.6,1.1,0.6,1.9c0,1.2-0.2,2.4-0.5,3.7
			c-0.3,1.2-0.8,2.4-1.4,3.6s-1.3,2.2-2.1,3.1c-0.8,0.9-1.7,1.6-2.7,2.1c-0.3,1.3-0.5,2.6-0.7,3.9c-0.1,1.3-0.2,2.7-0.1,4.1
			c0,0.6,0.1,1,0.3,1.2c0.2,0.3,0.4,0.4,0.7,0.4c0.7,0,1.4-0.4,2.1-1.3c0.1-0.1,0.3-0.3,0.5-0.6c0.2-0.3,0.4-0.6,0.7-1.1
			c0.3-0.5,0.6-1.1,0.9-1.9C227.7,26.9,228.1,25.8,228.5,24.6z M227.5,11.8c-0.8,1.3-1.5,2.6-2.2,4c-0.7,1.4-1.3,2.8-1.8,4.4
			c0.5-0.4,1-1,1.4-1.6c0.4-0.6,0.8-1.3,1.2-2c0.4-0.7,0.7-1.5,0.9-2.2c0.3-0.8,0.5-1.5,0.7-2.2c0-0.1,0-0.3,0-0.3
			C227.7,11.6,227.6,11.7,227.5,11.8L227.5,11.8z"/>
	</g>
</g>
<g id="XMLID_96_">
</g>
<g id="XMLID_138_">
</g>
<g id="XMLID_139_">
</g>
<g id="XMLID_140_">
</g>
<g id="XMLID_141_">
</g>
<g id="XMLID_142_">
</g>
</svg>
