<svg viewBox="0 0 914 914" fill="none" xmlns="http://www.w3.org/2000/svg">
<path d="M457.2 6.60001C208.7 6.60001 7.20001 208.1 7.20001 456.6C7.20001 705.1 208.7 906.6 457.2 906.6C705.7 906.6 907.2 705.1 907.2 456.6C907.2 208.1 705.7 6.60001 457.2 6.60001V6.60001ZM464.5 107.8L464.7 95.3C533.7 96.3 603.5 100.1 672.1 106.4L671 118.9C602.6 112.6 533.2 108.9 464.5 107.8ZM590.1 128.3L589.3 140.8C549.4 138.3 509 136.7 469 136L469.2 123.5C509.4 124.2 550.1 125.8 590.1 128.3ZM623.3 215.2L622.3 227.7C546.2 221.8 468.9 219.3 392.6 220.2L392.5 207.7C469.2 206.8 546.8 209.3 623.3 215.2ZM616.1 637.9L662.2 642.5L660.8 654.9L615 650.3L616.1 637.9V637.9ZM570.5 562.3L571.3 549.8L619.2 553.5L618.1 566L570.5 562.3V562.3ZM646.9 540.4C575.4 533.3 502.6 529.7 430.8 529.4V516.9C503.1 517.1 576.2 520.8 648.1 527.9L646.9 540.4V540.4ZM668.3 586.6L667 599L620 594.3L621.1 581.8L668.3 586.6V586.6ZM430.3 473.2V460.7C511.1 460.9 592.7 465.4 673.1 474L671.8 486.4C591.9 477.8 510.6 473.4 430.3 473.2ZM614.2 424.5L615.2 412L659.1 415.9L657.9 428.3L614.2 424.5V424.5ZM552.4 334.8L553 322.3C622.4 325.9 692.5 332.5 761.4 342L759.7 354.4C691.2 345 621.5 338.4 552.4 334.8V334.8ZM430.8 276.3V263.8C501.7 264 573.6 267.2 644.4 273.4L643.3 285.9C572.9 279.7 501.4 276.5 430.8 276.3ZM663.1 202.9C616 198.6 568.3 195.5 521.1 193.7L521.6 181.2C569 183 617 186.1 664.2 190.4L663.1 202.9ZM583.2 240.6L582.4 253.1C481.9 246.8 380 246.6 279.5 252.2L278.8 239.7C379.7 234 482.1 234.3 583.2 240.6V240.6ZM547.8 295L547.2 307.5C496.7 305 445.6 304 395.2 304.6L395.1 292.1C445.7 291.5 497.1 292.5 547.8 295ZM551.2 351.5L550.6 364C497.4 361.2 443.2 360.2 389.8 360.9L389.6 348.4C443.3 347.6 497.7 348.7 551.2 351.5ZM599.5 439.1L598.6 451.6C508.1 444.9 416.2 443.4 325.5 447.1L325 434.6C416.1 430.8 508.5 432.3 599.5 439.1ZM537.7 576.1L537.1 588.6C489.8 586.2 441.9 585.3 394.6 585.9L394.4 573.4C442 572.7 490.2 573.6 537.7 576.1ZM527.8 603.7L527.2 616.2C452 612.6 375.7 613 300.4 617.2L299.7 604.7C375.5 600.5 452.2 600.2 527.8 603.7ZM446.2 629.5C478.2 629.8 510.6 630.9 542.4 632.6L541.7 645.1C510.1 643.4 477.9 642.3 446 642L446.2 629.5ZM572.2 719.1L571.3 731.6L517.9 728.5L518.5 716L572.2 719.1V719.1ZM553.2 661.4C591.4 663.7 630.2 667.1 668.4 671.5L667 683.9C629 679.5 590.5 676.2 552.4 673.9L553.2 661.4ZM624.5 623L625.6 610.5C658.1 613.5 690.9 617.3 723.1 621.7L721.4 634.1C689.3 629.7 656.7 626 624.5 623ZM645.9 512L647.1 499.6C677.5 502.6 708.2 506.1 738.3 510.3L736.6 522.7C706.7 518.5 676.2 515 645.9 512ZM711.6 393.4C772.7 400.7 834.2 410.4 894.5 422.4L892.1 434.7C832.1 422.8 770.9 413.1 710.1 405.9L711.6 393.4ZM866.5 315.4C821.4 307.4 775.5 300.5 730.1 294.9L731.6 282.5C777.3 288.1 823.4 295 868.7 303.1L866.5 315.4V315.4ZM814.8 237.2L812.9 249.6C766.7 242.6 719.6 236.7 673.1 232.2L674.3 219.8C721 224.2 768.3 230.1 814.8 237.2V237.2ZM743.7 183.2C663.8 173.4 582.4 167.3 501.9 164.9L502.3 152.4C583.2 154.8 664.9 161 745.2 170.8L743.7 183.2ZM680.3 91.5C638 87.5 595 84.4 552.5 82.4L553.1 69.9C595.8 71.9 639 75 681.5 79L680.3 91.5ZM544.7 41.4L595.4 44.1L594.6 56.6L544.1 53.9L544.7 41.4V41.4ZM280.8 42.5C328.4 40 376.2 38.8 423.9 38.8C452.8 38.8 481.6 39.3 510.4 40.2L510 52.6C481.4 51.7 452.7 51.3 423.9 51.3C366.1 51.3 308.2 53.1 250.8 56.8C260.7 51.7 270.6 46.9 280.8 42.5ZM219.5 74.6C276.5 70.3 334 67.8 390.9 67.1L391 79.6C326.8 80.4 262.1 83.6 197.9 88.9C205 83.9 212.1 79.1 219.5 74.6V74.6ZM174.5 106.5C233.3 101.1 292.4 97.5 351 95.9L351.3 108.4C287 110.1 222.1 114.2 157.8 120.6C163.3 115.8 168.9 111.1 174.5 106.5V106.5ZM139.1 138.3C220.6 129.6 302.9 124.6 384.6 123.4L384.8 135.9C298.5 137.2 211.7 142.7 125.7 152.4C130 147.6 134.5 142.9 139.1 138.3V138.3ZM110.3 169.9C214.3 157.6 319.3 151.3 423.8 151.3C431.9 151.3 440.1 151.3 448.2 151.4L448.1 163.9C440 163.8 431.9 163.8 423.8 163.8C315.5 163.8 206.8 170.6 99.2 183.9C102.9 179.2 106.6 174.5 110.3 169.9V169.9ZM86.7 201.2C198.4 186.8 311.4 179.4 423.8 179.4C430.6 179.4 437.4 179.4 444.1 179.5L444 192C437.3 191.9 430.5 191.9 423.8 191.9C308.2 191.9 192.2 199.8 77.5 215.1C80.6 210.4 83.6 205.7 86.7 201.2V201.2ZM67.2 232.1C128 223.7 189.2 217.4 250.2 213.3L251 225.8C187.2 230.1 123.1 236.8 59.5 245.9C62 241.2 64.6 236.7 67.2 232.1V232.1ZM50.9 262.9C101.4 255.5 152.1 249.5 202.7 245.2L203.8 257.7C150.8 262.3 97.6 268.6 44.8 276.5C46.8 271.9 48.8 267.3 50.9 262.9V262.9ZM37.8 293.3C153.1 275.6 269.8 265.7 386.2 264L386.4 276.5C268.3 278.2 149.8 288.5 32.8 306.7C34.4 302.3 36.1 297.8 37.8 293.3V293.3ZM27.2 323.4C126.9 307.5 227.9 297.5 328.5 293.7L329 306.2C226.9 310.1 124.6 320.3 23.5 336.7C24.7 332.2 25.9 327.8 27.2 323.4V323.4ZM19.2 353.2C152.9 331.2 288.3 320 423.8 320C449.8 320 475.9 320.4 501.9 321.2L501.5 333.7C475.6 332.9 449.7 332.5 423.8 332.5C287.3 332.5 150.9 343.9 16.2 366.3C17.1 361.9 18.2 357.6 19.2 353.2V353.2ZM13.3 382.7C124.4 363.9 237 352.7 349.3 349.3L349.7 361.8C236.6 365.2 123.2 376.7 11.4 395.8C12 391.4 12.6 387 13.3 382.7V382.7ZM9.40001 411.9C146.1 388.2 285 376.2 423.7 376.2C431.7 376.2 439.8 376.2 447.8 376.3L447.7 388.8C439.7 388.7 431.7 388.7 423.7 388.7C284.6 388.7 145.4 400.8 8.40001 424.7C8.70001 420.5 9.00001 416.2 9.40001 411.9V411.9ZM7.60001 440.8C144.9 416.6 284.3 404.4 423.8 404.4C447.1 404.4 470.5 404.7 493.8 405.4L493.4 417.9C470.2 417.2 447 416.9 423.8 416.9C284.2 416.9 144.7 429.2 7.30001 453.5C7.30001 449.3 7.40001 445 7.60001 440.8V440.8ZM7.50001 469.4C88.3 455 170 444.7 251.5 438.8L252.4 451.3C170.7 457.2 88.8 467.6 7.90001 482C7.70001 477.8 7.60001 473.6 7.50001 469.4V469.4ZM9.10001 497.6C131.2 475.7 255.2 463.4 379 461L379.2 473.5C255.7 475.8 132.1 488.1 10.4 510C9.90001 506 9.50001 501.8 9.10001 497.6V497.6ZM12.4 525.6C112.2 507.6 213.4 496.1 314.4 491.3L315 503.8C214.5 508.5 113.9 520 14.7 537.9C13.9 533.8 13.1 529.8 12.4 525.6ZM17.7 553.2C138.9 531.4 262.1 519.3 385 517.2L385.2 529.7C263.1 531.8 140.8 543.8 20.5 565.4C19.5 561.4 18.6 557.3 17.7 553.2V553.2ZM24.6 580.6C152.1 557.7 281.8 545.8 411.2 545.1L411.3 557.6C283 558.3 154.5 570 28.1 592.6C26.9 588.6 25.7 584.6 24.6 580.6V580.6ZM33.2 607.7C138 589.1 244.5 577.8 350.7 574.3L351.1 586.8C246.2 590.2 141.2 601.3 37.6 619.6C36.2 615.7 34.7 611.7 33.2 607.7V607.7ZM43.7 634.3C117.1 621.5 191.3 612.3 265.3 607L266.2 619.5C193.7 624.7 121 633.7 49.1 646.2C47.2 642.2 45.4 638.3 43.7 634.3V634.3ZM56.2 660.8C153.9 644.1 253.1 633.8 352 630.6L352.4 643.1C255.4 646.3 158.1 656.2 62.2 672.5C60.1 668.6 58.2 664.7 56.2 660.8V660.8ZM70.5 686.9C187.2 667.4 305.5 657.5 423.8 657.5C455.8 657.5 487.9 658.2 519.9 659.7L519.3 672.2C487.5 670.8 455.6 670.1 423.8 670.1C307.9 670.1 192 679.7 77.7 698.5C75.3 694.6 72.9 690.8 70.5 686.9ZM87.2 712.6C198.4 694.7 311.3 685.6 423.7 685.6H427.7V698.1H423.7C314 698.1 203.8 706.9 95.3 724C92.5 720.3 89.8 716.5 87.2 712.6V712.6ZM106.2 738.1C183.2 726.3 261.3 718.6 338.9 715.5L339.4 728C264.7 731 189.6 738.2 115.5 749.3C112.3 745.6 109.2 741.9 106.2 738.1V738.1ZM138.6 774.4C135 770.8 131.5 767 128 763.3C211.6 751.2 296.3 744.1 380.6 742.4L380.9 754.9C300 756.5 218.8 763.2 138.6 774.4V774.4ZM152.9 788.1C242.6 776.1 333.4 770 423.9 770C435.2 770 446.5 770.1 457.8 770.3L457.6 782.8C446.4 782.6 435.1 782.5 423.9 782.5C337.6 782.5 251 788.1 165.4 799.1C161.3 795.5 157 791.9 152.9 788.1V788.1ZM182.3 812.8C233 806.7 284.3 802.3 335.2 800.1L335.7 812.6C289.5 814.6 243 818.4 196.8 823.6C192 820.1 187.1 816.5 182.3 812.8V812.8ZM260.4 861.4C314.3 856.9 368.8 854.4 422.7 854.4V866.9C376.6 866.9 330.1 868.6 283.9 872C275.9 868.7 268.1 865.1 260.4 861.4ZM467 895.5C452.7 895.2 438.3 895 423.9 895C402.8 895 381.6 895.4 360.4 896.1C346.8 893.1 333.4 889.6 320.3 885.4C354.7 883.6 389.3 882.6 423.9 882.6C438.4 882.6 452.9 882.8 467.3 883.1L467 895.5V895.5ZM487.5 839.8C466.4 839.1 445.2 838.8 424 838.8C361 838.8 297.8 841.9 235 847.9C228.9 844.4 222.9 840.8 217 837.1C285.6 829.9 354.9 826.3 424 826.3C445.3 826.3 466.7 826.6 487.9 827.3L487.5 839.8V839.8ZM517.9 812.9C468.9 810.6 419.2 810.1 370.2 811.4L369.9 798.9C419.2 797.6 469.2 798.1 518.5 800.4L517.9 812.9ZM572.6 872.6L518.7 869.2L519.3 856.7L573.6 860.1L572.6 872.6ZM576.9 760.1C528 756.4 478.4 754.5 429.5 754.4V741.9C478.7 742 528.6 744 577.8 747.7L576.9 760.1V760.1ZM665.2 825.3L609.9 819.3L611.1 806.9L666.8 812.9L665.2 825.3V825.3ZM675.5 741.6L631.5 736.7L632.8 724.3L677 729.2L675.5 741.6ZM740.9 722.2C680.7 713 619.4 706.4 558.6 702.5L559.4 690C620.5 693.9 682.2 700.6 742.7 709.8L740.9 722.2V722.2ZM828.1 593.2C796.3 587.4 763.9 582.2 731.8 577.7L733.5 565.3C765.8 569.8 798.4 575 830.4 580.9L828.1 593.2V593.2ZM828.8 451.5C793.5 445.4 757.6 440.1 722 435.6L723.6 423.2C759.4 427.7 795.5 433.1 830.9 439.2L828.8 451.5V451.5ZM833.4 480.9L835.6 468.6C859.2 472.8 882.9 477.4 906.4 482.3C906.2 486.5 905.8 490.7 905.4 494.9C881.5 489.9 857.4 485.1 833.4 480.9Z" fill="url(#paint0_linear)"/>
<path d="M521.2 193.7C568.3 195.5 616.1 198.5 663.2 202.9L664.3 190.4C617 186 569 182.9 521.7 181.2L521.2 193.7Z" fill="white"/>
<path d="M673.1 232.1C719.7 236.6 766.7 242.5 812.9 249.5L814.8 237.1C768.3 230 721.1 224.1 674.3 219.6L673.1 232.1Z" fill="white"/>
<path d="M392.6 207.7L392.7 220.2C469 219.3 546.3 221.8 622.4 227.7L623.4 215.2C546.8 209.3 469.2 206.8 392.6 207.7V207.7Z" fill="white"/>
<path d="M279.4 252.2C379.9 246.5 481.8 246.8 582.3 253.1L583.1 240.6C482.1 234.3 379.7 234 278.7 239.7L279.4 252.2V252.2Z" fill="white"/>
<path d="M730 294.9C775.5 300.5 821.4 307.3 866.4 315.4L868.6 303.1C823.3 295 777.2 288.1 731.5 282.5L730 294.9V294.9Z" fill="white"/>
<path d="M552.5 82.4C595 84.4 638 87.5 680.3 91.5L681.5 79.1C639 75 595.8 72 553.1 70L552.5 82.4Z" fill="white"/>
<path d="M672 106.4C603.4 100.1 533.7 96.3 464.6 95.3L464.4 107.8C533.1 108.8 602.5 112.6 670.8 118.9L672 106.4V106.4Z" fill="white"/>
<path d="M501.9 164.9C582.4 167.3 663.7 173.4 743.7 183.2L745.2 170.8C664.9 161 583.2 154.8 502.3 152.4L501.9 164.9V164.9Z" fill="white"/>
<path d="M547.2 307.5L547.8 295C497.1 292.5 445.7 291.5 395 292.1L395.1 304.6C445.6 304 496.7 305 547.2 307.5Z" fill="white"/>
<path d="M389.6 348.4L389.8 360.9C443.2 360.2 497.4 361.2 550.6 364L551.2 351.5C497.7 348.7 443.3 347.6 389.6 348.4Z" fill="white"/>
<path d="M325 434.6L325.5 447.1C416.2 443.3 508.1 444.8 598.6 451.6L599.5 439.1C508.5 432.3 416.1 430.8 325 434.6Z" fill="white"/>
<path d="M619.3 553.5L571.3 549.9L570.5 562.3L618.2 566L619.3 553.5Z" fill="white"/>
<path d="M620 594.4L667 599L668.3 586.6L621.1 581.9L620 594.4Z" fill="white"/>
<path d="M662.2 642.5L616.1 637.9L615 650.4L660.8 654.9L662.2 642.5Z" fill="white"/>
<path d="M631.5 736.7L675.5 741.6L677 729.2L632.7 724.3L631.5 736.7Z" fill="white"/>
<path d="M542.4 632.6C510.6 630.9 478.2 629.8 446.2 629.5L446 642C477.9 642.3 510.1 643.4 541.7 645.1L542.4 632.6V632.6Z" fill="white"/>
<path d="M300.5 617.2C375.8 613 452.1 612.6 527.3 616.2L527.9 603.7C452.3 600.1 375.5 600.5 299.8 604.7L300.5 617.2V617.2Z" fill="white"/>
<path d="M723.1 621.7C690.9 617.3 658.1 613.5 625.6 610.5L624.5 623C656.8 626 689.4 629.7 721.4 634.1L723.1 621.7Z" fill="white"/>
<path d="M615.2 412.1L614.2 424.5L657.9 428.4L659.2 416L615.2 412.1Z" fill="white"/>
<path d="M595.4 44.1L544.7 41.4L544.1 53.9L594.6 56.6L595.4 44.1Z" fill="white"/>
<path d="M430.7 529.4C502.6 529.6 575.3 533.3 646.8 540.4L648 528C576.1 520.9 502.9 517.2 430.7 517V529.4Z" fill="white"/>
<path d="M673.1 474C592.8 465.4 511.1 460.9 430.3 460.7V473.2C510.6 473.4 591.9 477.9 671.8 486.4L673.1 474V474Z" fill="white"/>
<path d="M369.9 798.9L370.2 811.4C419.2 810.1 468.9 810.6 517.9 812.9L518.5 800.4C469.2 798.1 419.2 797.5 369.9 798.9Z" fill="white"/>
<path d="M668.4 671.5C630.2 667.1 591.4 663.7 553.2 661.4L552.4 673.9C590.4 676.2 629 679.6 667 683.9L668.4 671.5Z" fill="white"/>
<path d="M518 728.4L571.3 731.5L572.2 719.1L518.5 715.9L518 728.4Z" fill="white"/>
<path d="M609.9 819.4L665.2 825.3L666.8 812.9L611.1 806.9L609.9 819.4Z" fill="white"/>
<path d="M518.7 869.2L572.6 872.6L573.6 860.2L519.3 856.7L518.7 869.2Z" fill="white"/>
<path d="M394.6 585.8C441.9 585.2 489.8 586.1 537.1 588.5L537.7 576C490.2 573.6 442 572.6 394.4 573.3L394.6 585.8Z" fill="white"/>
<path d="M558.6 702.5C619.4 706.4 680.7 713 740.9 722.2L742.8 709.8C682.3 700.6 620.6 693.9 559.5 690L558.6 702.5V702.5Z" fill="white"/>
<path d="M429.5 754.4C478.4 754.5 528 756.5 576.9 760.1L577.8 747.6C528.6 743.9 478.7 742 429.5 741.8V754.4V754.4Z" fill="white"/>
<path d="M761.4 342C692.5 332.5 622.4 325.9 553 322.3L552.4 334.8C621.4 338.4 691.2 345 759.7 354.4L761.4 342V342Z" fill="white"/>
<path d="M644.4 273.4C573.6 267.2 501.8 264 430.8 263.8V276.3C501.4 276.5 572.9 279.7 643.3 285.9L644.4 273.4Z" fill="white"/>
<path d="M722 435.6C757.6 440.1 793.5 445.4 828.8 451.5L830.9 439.2C795.5 433.1 759.3 427.7 723.6 423.2L722 435.6V435.6Z" fill="white"/>
<path d="M589.4 140.8L590.2 128.3C550.1 125.8 509.5 124.2 469.3 123.5L469.1 136C509 136.7 549.5 138.3 589.4 140.8Z" fill="white"/>
<path d="M835.5 468.6L833.3 480.9C857.3 485.1 881.4 489.9 905.4 494.9C905.8 490.7 906.1 486.5 906.4 482.3C882.8 477.4 859.1 472.7 835.5 468.6Z" fill="white"/>
<path d="M894.6 422.4C834.3 410.5 772.7 400.7 711.7 393.4L710.2 405.8C770.9 413.1 832.2 422.7 892.2 434.6L894.6 422.4Z" fill="white"/>
<path d="M731.8 577.7C763.9 582.1 796.3 587.3 828.1 593.2L830.3 580.9C798.3 575 765.7 569.8 733.4 565.3L731.8 577.7Z" fill="white"/>
<path d="M738.4 510.3C708.3 506.2 677.6 502.6 647.2 499.6L646 512C676.3 514.9 706.8 518.5 736.8 522.6L738.4 510.3V510.3Z" fill="white"/>
<path d="M335.2 800.1C284.3 802.3 233 806.7 182.3 812.8C187.1 816.5 192 820.1 196.9 823.6C243 818.3 289.5 814.6 335.8 812.6L335.2 800.1V800.1Z" fill="white"/>
<path d="M457.7 782.8L457.9 770.3C446.6 770.1 435.3 770 424 770C333.5 770 242.7 776.1 153 788.1C157.1 791.9 161.3 795.5 165.6 799.1C251.2 788.1 337.8 782.5 424.1 782.5C435.2 782.5 446.5 782.6 457.7 782.8V782.8Z" fill="white"/>
<path d="M380.6 742.3C296.3 744.1 211.6 751.1 128 763.2C131.5 767 135 770.7 138.6 774.3C218.8 763 300.1 756.4 380.8 754.7L380.6 742.3Z" fill="white"/>
<path d="M338.9 715.5C261.2 718.6 183.2 726.3 106.2 738.1C109.3 741.9 112.4 745.6 115.5 749.3C189.6 738.2 264.7 731 339.4 728L338.9 715.5V715.5Z" fill="white"/>
<path d="M427.7 698.1V685.6H423.7C311.2 685.6 198.3 694.7 87.2 712.6C89.9 716.4 92.5 720.3 95.3 724C203.8 706.9 314 698.1 423.7 698.1H427.7V698.1Z" fill="white"/>
<path d="M519.4 672.2L520 659.7C488 658.3 456 657.5 423.9 657.5C305.6 657.5 187.3 667.4 70.6 686.9C72.9 690.8 75.3 694.6 77.8 698.4C192.1 679.6 307.9 670 423.8 670C455.7 670 487.5 670.7 519.4 672.2Z" fill="white"/>
<path d="M352 630.6C253.1 633.9 153.9 644.1 56.2 660.8C58.2 664.7 60.1 668.6 62.2 672.4C158.1 656.2 255.4 646.2 352.4 643L352 630.6V630.6Z" fill="white"/>
<path d="M265.2 607C191.2 612.3 117 621.5 43.6 634.3C45.3 638.3 47.1 642.2 48.9 646.1C120.8 633.6 193.6 624.7 266 619.4L265.2 607V607Z" fill="white"/>
<path d="M350.8 574.3C244.6 577.8 138.1 589.1 33.3 607.7C34.7 611.7 36.3 615.6 37.8 619.6C141.3 601.3 246.4 590.3 351.3 586.8L350.8 574.3Z" fill="white"/>
<path d="M411.2 545.1C281.8 545.8 152.1 557.7 24.6 580.6C25.8 584.6 26.9 588.7 28.1 592.7C154.5 570 283 558.3 411.2 557.6V545.1Z" fill="white"/>
<path d="M385 517.2C262 519.3 138.9 531.4 17.7 553.2C18.6 557.3 19.5 561.4 20.5 565.4C140.8 543.8 263.2 531.7 385.2 529.7L385 517.2Z" fill="white"/>
<path d="M314.4 491.3C213.4 496.1 112.2 507.6 12.4 525.6C13 529.7 13.8 533.8 14.6 537.9C113.8 520 214.5 508.5 314.9 503.8L314.4 491.3V491.3Z" fill="white"/>
<path d="M379 461.1C255.2 463.5 131.2 475.8 9.10001 497.7C9.50001 501.9 9.90001 506 10.4 510.2C132.1 488.3 255.7 476 379.2 473.7L379 461.1V461.1Z" fill="white"/>
<path d="M251.5 438.8C170 444.7 88.3 455 7.5 469.4C7.6 473.6 7.7 477.8 7.9 482C88.8 467.5 170.7 457.2 252.4 451.2L251.5 438.8V438.8Z" fill="white"/>
<path d="M493.4 417.9L493.8 405.4C470.5 404.7 447.1 404.4 423.8 404.4C284.3 404.4 144.9 416.6 7.59999 440.8C7.49999 445 7.29999 449.3 7.29999 453.5C144.7 429.2 284.2 416.9 423.8 416.9C447 416.9 470.2 417.2 493.4 417.9V417.9Z" fill="white"/>
<path d="M447.7 388.9L447.8 376.4C439.8 376.3 431.7 376.3 423.7 376.3C285 376.3 146.1 388.3 9.39999 412C8.99999 416.3 8.69999 420.6 8.39999 424.8C145.4 400.9 284.6 388.8 423.7 388.8C431.7 388.8 439.7 388.8 447.7 388.9Z" fill="white"/>
<path d="M349.3 349.3C236.9 352.7 124.3 363.9 13.3 382.7C12.6 387 12 391.4 11.4 395.7C123.2 376.6 236.6 365.1 349.7 361.7L349.3 349.3V349.3Z" fill="white"/>
<path d="M501.5 333.7L501.9 321.2C475.9 320.4 449.9 320 423.8 320C288.3 320 152.9 331.2 19.2 353.2C18.2 357.6 17.1 361.9 16.2 366.4C150.8 343.9 287.3 332.6 423.8 332.6C449.7 332.5 475.6 332.9 501.5 333.7V333.7Z" fill="white"/>
<path d="M328.5 293.7C227.9 297.5 126.9 307.5 27.2 323.4C25.9 327.8 24.7 332.2 23.4 336.6C124.5 320.2 226.9 310 328.9 306.1L328.5 293.7Z" fill="white"/>
<path d="M386.2 264C269.8 265.7 153.1 275.6 37.8 293.3C36.1 297.7 34.4 302.2 32.8 306.7C149.8 288.4 268.3 278.2 386.4 276.5L386.2 264V264Z" fill="white"/>
<path d="M202.7 245.2C152.1 249.6 101.4 255.5 50.9 262.9C48.8 267.4 46.8 271.9 44.8 276.4C97.6 268.5 150.8 262.2 203.8 257.6L202.7 245.2V245.2Z" fill="white"/>
<path d="M250.2 213.3C189.3 217.4 128 223.7 67.2 232.1C64.6 236.6 62 241.2 59.5 245.8C123.1 236.7 187.2 230 251 225.7L250.2 213.3Z" fill="white"/>
<path d="M444.1 192L444.2 179.5C437.4 179.4 430.6 179.4 423.9 179.4C311.4 179.4 198.5 186.8 86.8 201.2C83.7 205.8 80.6 210.4 77.6 215.1C192.3 199.8 308.3 191.9 423.9 191.9C430.6 191.9 437.4 191.9 444.1 192V192Z" fill="white"/>
<path d="M448.2 163.9L448.3 151.4C440.2 151.3 432 151.3 423.9 151.3C319.4 151.3 214.3 157.6 110.4 169.9C106.6 174.5 103 179.2 99.4 183.9C207 170.6 315.7 163.8 424 163.8C432 163.8 440.1 163.8 448.2 163.9V163.9Z" fill="white"/>
<path d="M384.5 123.4C302.8 124.6 220.6 129.6 139 138.3C134.4 142.9 130 147.6 125.6 152.4C211.6 142.8 298.4 137.2 384.7 135.9L384.5 123.4V123.4Z" fill="white"/>
<path d="M351.1 96C292.4 97.6 233.3 101.1 174.6 106.6C168.9 111.2 163.4 115.9 158 120.7C222.3 114.3 287.2 110.2 351.5 108.5L351.1 96V96Z" fill="white"/>
<path d="M390.9 67.1C334 67.8 276.5 70.3 219.5 74.6C212.2 79.2 205 84 198 88.9C262.2 83.6 326.9 80.4 391.1 79.6L390.9 67.1Z" fill="white"/>
<path d="M510 52.6L510.4 40.1C481.7 39.2 452.8 38.7 423.9 38.7C376.2 38.7 328.3 40 280.8 42.4C270.6 46.8 260.6 51.6 250.8 56.6C308.2 53 366.1 51.1 423.9 51.1C452.7 51.3 481.4 51.7 510 52.6V52.6Z" fill="white"/>
<path d="M320.3 885.4C333.4 889.6 346.8 893.1 360.4 896.1C381.5 895.4 402.7 895 423.9 895C438.3 895 452.7 895.2 467 895.5L467.3 883C452.9 882.7 438.4 882.5 423.9 882.5C389.3 882.5 354.7 883.5 320.3 885.4V885.4Z" fill="white"/>
<path d="M422.7 854.4C368.8 854.4 314.3 856.9 260.4 861.4C268.1 865.2 275.9 868.7 283.9 872C330.1 868.6 376.6 866.9 422.7 866.9V854.4Z" fill="white"/>
<path d="M217 837.1C222.9 840.8 228.9 844.4 235 847.9C297.7 841.9 360.9 838.8 424 838.8C445.2 838.8 466.4 839.1 487.5 839.8L487.9 827.3C466.6 826.6 445.3 826.3 424 826.3C354.9 826.3 285.6 829.9 217 837.1V837.1Z" fill="white"/>
<defs>
<linearGradient id="paint0_linear" x1="7.16411" y1="456.62" x2="907.16" y2="456.62" gradientUnits="userSpaceOnUse">
<stop stop-color="#0ABBDF"/>
<stop offset="1" stop-color="#426DB5"/>
</linearGradient>
</defs>
</svg>
